<svg xmlns="http://www.w3.org/2000/svg" xml:space="preserve" width="142.95" height="142.95" style="border-radius: 50%;"><g data-svg-origin="255.66151428222656 85.82449531555176" style="opacity:1;transform-origin:0 0" transform="translate(-157)"><path fill="#CAD9DD" d="M255.662 153.639c-18.114 0-35.144-7.055-47.952-19.863-12.808-12.807-19.861-29.837-19.861-47.951s7.054-35.144 19.861-47.951c12.809-12.809 29.838-19.862 47.952-19.862s35.144 7.054 47.951 19.862c12.809 12.808 19.862 29.838 19.862 47.951s-7.054 35.144-19.862 47.951c-12.807 12.808-29.837 19.863-47.951 19.863z"/><path fill="#A2B5BF" d="M255.662 21.672c35.431 0 62.713 28.731 62.713 64.162 0 35.431-27.282 62.167-62.713 62.167s-64.153-26.744-64.153-62.175c0-35.432 28.722-64.154 64.153-64.154m0-7.322c-9.646 0-19.007 1.891-27.823 5.62a71.223 71.223 0 0 0-22.717 15.315 71.177 71.177 0 0 0-15.314 22.717c-3.729 8.816-5.62 18.178-5.62 27.823s1.891 19.007 5.62 27.824a71.231 71.231 0 0 0 15.314 22.717 71.253 71.253 0 0 0 22.717 15.314c8.816 3.729 18.178 5.619 27.823 5.619s19.007-1.891 27.823-5.619a71.297 71.297 0 0 0 22.717-15.314 71.231 71.231 0 0 0 15.314-22.717c3.729-8.816 5.619-18.178 5.619-27.824s-1.891-19.007-5.619-27.823a71.242 71.242 0 0 0-15.314-22.717 71.234 71.234 0 0 0-22.717-15.315c-8.816-3.729-18.177-5.62-27.823-5.62z"/><path fill="#A2B5BF" d="M295.264 35.35c8.768 10.972 14.013 24.881 14.013 40.017 0 35.43-28.723 64.153-64.153 64.153-14.944 0-28.696-5.109-39.602-13.68 11.755 14.711 29.846 24.137 50.141 24.137 35.431 0 64.153-28.721 64.153-64.152-.001-20.486-9.603-38.729-24.552-50.475z"/><circle cx="304.291" cy="98.701" r="5.392" fill="#CAD9DD"/><path fill="#CAD9DD" d="M278.364 126.115c0-8.791-7.127-15.916-15.918-15.916s-15.918 7.125-15.918 15.916c0 8.793 7.127 15.92 15.918 15.92s15.918-7.127 15.918-15.92z"/><circle cx="242.372" cy="138.547" r="3.603" fill="#CAD9DD"/><circle cx="306.504" cy="57.724" r="3.456" fill="#CAD9DD"/><circle cx="262.446" cy="126.115" r="14.346" fill="#A2B5BF"/><path fill="#231F20" d="M249.772 128.002c0-7.922 6.422-14.346 14.346-14.346 3.824 0 7.297 1.5 9.869 3.941a14.32 14.32 0 0 0-11.541-5.826c-7.923 0-14.346 6.422-14.346 14.344 0 4.1 1.721 7.793 4.477 10.406a14.274 14.274 0 0 1-2.805-8.519z" opacity=".12"/><circle cx="239.621" cy="65.064" r="9.908" fill="#A2B5BF"/><path fill="#231F20" d="M230.867 66.366c0-5.472 4.437-9.907 9.908-9.907a9.87 9.87 0 0 1 6.816 2.721 9.894 9.894 0 0 0-7.972-4.023c-5.472 0-9.907 4.436-9.907 9.908a9.88 9.88 0 0 0 3.091 7.187 9.877 9.877 0 0 1-1.936-5.886z" opacity=".12"/><circle cx="292.418" cy="64.686" r="7.339" fill="#A2B5BF"/><path fill="#231F20" d="M285.934 65.651a7.34 7.34 0 0 1 12.389-5.324 7.339 7.339 0 1 0-10.954 9.683 7.31 7.31 0 0 1-1.435-4.359z" opacity=".12"/><circle cx="285.796" cy="108.111" r="3.48" fill="#A2B5BF"/><path fill="#231F20" d="M282.721 108.568a3.48 3.48 0 0 1 5.876-2.523 3.48 3.48 0 1 0-5.195 4.591 3.458 3.458 0 0 1-.681-2.068z" opacity=".12"/><circle cx="222.605" cy="77.949" r="4.441" fill="#A2B5BF"/><path fill="#231F20" d="M218.682 78.533a4.44 4.44 0 0 1 7.495-3.22 4.44 4.44 0 1 0-6.626 5.858 4.42 4.42 0 0 1-.869-2.638z" opacity=".12"/><circle cx="304.291" cy="98.701" r="4.441" fill="#A2B5BF"/><path fill="#231F20" d="M300.367 99.284a4.44 4.44 0 0 1 7.495-3.22 4.44 4.44 0 1 0-6.626 5.858 4.42 4.42 0 0 1-.869-2.638z" opacity=".12"/><circle cx="242.372" cy="138.547" r="2.751" fill="#A2B5BF"/><path fill="#231F20" d="M239.941 138.908a2.75 2.75 0 0 1 4.644-1.994 2.752 2.752 0 1 0-4.106 3.629 2.745 2.745 0 0 1-.538-1.635z" opacity=".12"/><circle cx="238.652" cy="40.059" r="2.751" fill="#A2B5BF"/><path fill="#231F20" d="M236.222 40.421a2.751 2.751 0 0 1 4.645-1.996 2.75 2.75 0 1 0-4.107 3.63 2.731 2.731 0 0 1-.538-1.634z" opacity=".12"/><circle cx="252.921" cy="44.149" r="5.33" fill="#A2B5BF"/><path fill="#231F20" d="M248.213 44.85a5.33 5.33 0 0 1 8.997-3.866 5.33 5.33 0 1 0-7.955 7.031 5.306 5.306 0 0 1-1.042-3.165z" opacity=".12"/><circle cx="258.251" cy="81.17" r="4.195" fill="#A2B5BF"/><path fill="#231F20" d="M254.546 81.722a4.194 4.194 0 0 1 7.08-3.043 4.195 4.195 0 1 0-6.26 5.533 4.171 4.171 0 0 1-.82-2.49z" opacity=".12"/><circle cx="306.504" cy="57.724" r="2.751" fill="#A2B5BF"/><path fill="#231F20" d="M304.073 58.085a2.75 2.75 0 0 1 4.645-1.995 2.75 2.75 0 1 0-4.108 3.629 2.733 2.733 0 0 1-.537-1.634z" opacity=".12"/><circle cx="207.412" cy="62.199" r="2.751" fill="#A2B5BF"/><path fill="#231F20" d="M204.981 62.56a2.751 2.751 0 0 1 4.645-1.996 2.752 2.752 0 1 0-4.107 3.63 2.747 2.747 0 0 1-.538-1.634z" opacity=".12"/><circle cx="214.279" cy="103.596" r="2.751" fill="#A2B5BF"/><path fill="#231F20" d="M211.848 103.958a2.75 2.75 0 0 1 4.644-1.996 2.751 2.751 0 1 0-4.106 3.631 2.748 2.748 0 0 1-.538-1.635z" opacity=".12"/></g></svg>